<svg id="Layer_1" data-name="Layer 1" xmlns="http://www.w3.org/2000/svg" xmlns:xlink="http://www.w3.org/1999/xlink" viewBox="0 0 170.08 175.75"><defs><style>.cls-1{fill:url(#New_Gradient_Swatch);}.cls-2{fill:#fff;}</style><linearGradient id="New_Gradient_Swatch" x1="3.52" y1="90.67" x2="167.83" y2="90.67" gradientUnits="userSpaceOnUse"><stop offset="0" stop-color="#0bc6df"/><stop offset="0.99" stop-color="#00d"/></linearGradient></defs><title>oficcial-society_01</title><circle class="cls-1" cx="85.67" cy="90.67" r="82.15"/><path class="cls-2" d="M134.68,93.48a.76.76,0,0,1,.49.3L136.26,95a.82.82,0,0,1,0,1.15A7.74,7.74,0,0,1,131,97.84c-4.88,0-8-3.07-8-7.26a7.17,7.17,0,0,1,7.55-7.26A6.88,6.88,0,0,1,137.63,89a1.52,1.52,0,0,1-1.22,1.75l-9.08,1.76a3.72,3.72,0,0,0,3.75,2.1,4.86,4.86,0,0,0,2.79-.76l.31-.18A.75.75,0,0,1,134.68,93.48Zm-1-5a3.28,3.28,0,0,0-3.21-2A3.38,3.38,0,0,0,127,89.72Z"/><path class="cls-2" d="M106.51,108.22a3,3,0,0,1,5.21-1.86l-.81.75a1.76,1.76,0,0,0-1.37-.64,1.75,1.75,0,0,0,0,3.5,1.74,1.74,0,0,0,1.37-.65l.81.75a3,3,0,0,1-5.21-1.85Z"/><path class="cls-2" d="M114.81,105.49h1.26v4.43h2.74v1h-4Z"/><path class="cls-2" d="M121.64,108.55v-3.06h1.26v3c0,1,.45,1.47,1.22,1.47s1.22-.43,1.22-1.47v-3h1.25v3.06a2.47,2.47,0,1,1-4.95,0Z"/><path class="cls-2" d="M135.08,109.46c0,.94-.75,1.49-2.19,1.49h-2.82v-5.46h2.67c1.36,0,2.07.57,2.07,1.42a1.31,1.31,0,0,1-.73,1.2A1.35,1.35,0,0,1,135.08,109.46Zm-3.75-3v1.29h1.26c.62,0,1-.22,1-.65s-.34-.64-1-.64Zm2.48,2.89c0-.46-.35-.68-1-.68h-1.47V110h1.47C133.46,110,133.81,109.8,133.81,109.33Z"/><path class="cls-2" d="M45.44,93.48a.76.76,0,0,1,.49.3L47,95a.82.82,0,0,1,0,1.15,7.74,7.74,0,0,1-5.25,1.71c-4.88,0-8-3.07-8-7.26a7.17,7.17,0,0,1,7.55-7.26A6.88,6.88,0,0,1,48.4,89a1.52,1.52,0,0,1-1.22,1.75L38.1,92.46a3.72,3.72,0,0,0,3.75,2.1,4.86,4.86,0,0,0,2.79-.76l.31-.18A.75.75,0,0,1,45.44,93.48Zm-1-5a3.28,3.28,0,0,0-3.21-2,3.38,3.38,0,0,0-3.51,3.31Z"/><path class="cls-2" d="M65.82,89.55v7.24a.83.83,0,0,1-.83.83H62.56a.83.83,0,0,1-.83-.83V90.18c0-2.28-1-3.33-2.85-3.33-2,0-3.38,1.2-3.38,3.8v6.14a.83.83,0,0,1-.83.83H52.24a.83.83,0,0,1-.83-.83V84.36a.83.83,0,0,1,.83-.83h2.14c.71,0,.92.37.94,1v.67A6.17,6.17,0,0,1,60,83.32C63.3,83.32,65.82,85.26,65.82,89.55Z"/><path class="cls-2" d="M69.49,90.57c0-4.24,3.27-7.26,7.86-7.26a6.68,6.68,0,0,1,5.93,2.86.81.81,0,0,1-.34,1.12l-1.8,1A.84.84,0,0,1,80.08,88a3.41,3.41,0,0,0-2.76-1.33,3.91,3.91,0,0,0,0,7.81,3.37,3.37,0,0,0,2.76-1.32.84.84,0,0,1,1.06-.26l1.78,1a.85.85,0,0,1,.27,1.23,6.79,6.79,0,0,1-5.85,2.73C72.76,97.83,69.49,94.82,69.49,90.57Z"/><path class="cls-2" d="M86,90.69c0-4.24,3.27-7.26,7.75-7.26s7.73,3,7.73,7.26-3.25,7.26-7.73,7.26S86,94.93,86,90.69Zm11.34,0a3.61,3.61,0,1,0-3.59,3.9C95.81,94.59,97.36,93.12,97.36,90.69Z"/><path class="cls-2" d="M119.75,80.92V96.79a.83.83,0,0,1-.83.83h-2.18a.87.87,0,0,1-.9-.89V96a5.42,5.42,0,0,1-4.4,1.83,7.26,7.26,0,0,1,0-14.51,5.41,5.41,0,0,1,4.22,1.7V80.92a.83.83,0,0,1,.83-.83h2.43A.83.83,0,0,1,119.75,80.92Zm-4,9.66a3.61,3.61,0,1,0-3.59,3.9A3.57,3.57,0,0,0,115.75,90.57Z"/><path class="cls-2" d="M129.59,38.67a1.12,1.12,0,1,1,1.12-1.12A1.12,1.12,0,0,1,129.59,38.67Zm1.12,16.59a1.12,1.12,0,1,0-1.12,1.12A1.12,1.12,0,0,0,130.71,55.26Zm0,17.71a1.12,1.12,0,1,0-1.12,1.12A1.12,1.12,0,0,0,130.71,73Zm0,53.12a1.12,1.12,0,1,0-1.12,1.12A1.12,1.12,0,0,0,130.71,126.09Zm0,17.71a1.12,1.12,0,1,0-1.12,1.12A1.12,1.12,0,0,0,130.71,143.8ZM113,73a1.12,1.12,0,1,0-1.12,1.12A1.12,1.12,0,0,0,113,73Zm0,53.12a1.12,1.12,0,1,0-1.12,1.12A1.12,1.12,0,0,0,113,126.09ZM95.29,37.55a1.12,1.12,0,1,0-1.12,1.12A1.12,1.12,0,0,0,95.29,37.55Zm0,17.71a1.12,1.12,0,1,0-1.12,1.12A1.12,1.12,0,0,0,95.29,55.26Zm0,17.71a1.12,1.12,0,1,0-1.12,1.12A1.12,1.12,0,0,0,95.29,73Zm0,35.42a1.12,1.12,0,1,0-1.12,1.12A1.12,1.12,0,0,0,95.29,108.38Zm0,17.71a1.12,1.12,0,1,0-1.12,1.12A1.12,1.12,0,0,0,95.29,126.09Zm0,17.71a1.12,1.12,0,1,0-1.12,1.12A1.12,1.12,0,0,0,95.29,143.8ZM77.58,55.26a1.12,1.12,0,1,0-1.12,1.12A1.12,1.12,0,0,0,77.58,55.26Zm0,17.71a1.12,1.12,0,1,0-1.12,1.12A1.12,1.12,0,0,0,77.58,73Zm0,35.42a1.12,1.12,0,1,0-1.12,1.12A1.12,1.12,0,0,0,77.58,108.38Zm-17.71,0a1.12,1.12,0,1,0-1.12,1.12A1.12,1.12,0,0,0,59.88,108.38Zm0,17.71a1.12,1.12,0,1,0-1.12,1.12A1.12,1.12,0,0,0,59.88,126.09ZM42.17,37.55A1.12,1.12,0,1,0,41,38.67,1.12,1.12,0,0,0,42.17,37.55Zm0,17.71A1.12,1.12,0,1,0,41,56.37,1.12,1.12,0,0,0,42.17,55.26Zm0,17.71A1.12,1.12,0,1,0,41,74.08,1.12,1.12,0,0,0,42.17,73Zm0,35.42A1.12,1.12,0,1,0,41,109.5,1.12,1.12,0,0,0,42.17,108.38Z"/><circle class="cls-2" cx="142.08" cy="27.96" r="25.32"/><path d="M122.61,24.72A2.44,2.44,0,1,1,125,27,2.31,2.31,0,0,1,122.61,24.72Zm4.09,0A1.66,1.66,0,1,0,125,26.36,1.6,1.6,0,0,0,126.71,24.72Z"/><path d="M130.4,23.12v1.46h2.23v.63H130.4V27h-.76V22.49h3.27v.63Z"/><path d="M135.68,23.12v1.46h2.23v.63h-2.23V27h-.76V22.49h3.27v.63Z"/><path d="M140.19,22.49h.76V27h-.76Z"/><path d="M143.1,24.72a2.3,2.3,0,0,1,2.42-2.3,2.21,2.21,0,0,1,1.76.7l-.49.5a1.64,1.64,0,0,0-1.25-.54,1.64,1.64,0,1,0,0,3.28,1.64,1.64,0,0,0,1.25-.54l.49.5a2.21,2.21,0,0,1-1.76.71A2.3,2.3,0,0,1,143.1,24.72Z"/><path d="M149.31,22.49h.76V27h-.76Z"/><path d="M155.55,25.9h-2.4L152.68,27h-.75l2-4.47h.76L156.78,27H156Zm-.27-.61-.93-2.11-.94,2.11Z"/><path d="M158.65,22.49h.76v3.83h2.4V27h-3.17Z"/><path d="M124.07,35l.3-.6a2.49,2.49,0,0,0,1.51.49c.75,0,1-.28,1-.62,0-1-2.71-.31-2.71-2,0-.8.69-1.33,1.8-1.33a2.78,2.78,0,0,1,1.5.39l-.28.61a2.17,2.17,0,0,0-1.25-.35c-.72,0-1,.28-1,.64,0,1,2.71.33,2.71,2,0,.81-.68,1.34-1.82,1.34A2.92,2.92,0,0,1,124.07,35Z"/><path d="M129.44,33.23a2.44,2.44,0,1,1,2.43,2.3A2.31,2.31,0,0,1,129.44,33.23Zm4.09,0a1.66,1.66,0,1,0-1.66,1.64A1.6,1.6,0,0,0,133.53,33.23Z"/><path d="M136.14,33.23a2.3,2.3,0,0,1,2.42-2.3,2.21,2.21,0,0,1,1.76.7l-.49.5a1.64,1.64,0,0,0-1.25-.54,1.64,1.64,0,1,0,0,3.28,1.64,1.64,0,0,0,1.25-.54l.49.5a2.21,2.21,0,0,1-1.76.71A2.3,2.3,0,0,1,136.14,33.23Z"/><path d="M142.35,31h.76v4.47h-.76Z"/><path d="M149,34.82v.64H145.6V31h3.27v.63h-2.5v1.26h2.23v.62h-2.23v1.32Z"/><path d="M152.12,31.62h-1.53V31h3.82v.63h-1.53v3.84h-.76Z"/><path d="M158.5,34v1.46h-.76V34l-1.83-3h.81l1.42,2.29L159.56,31h.79Z"/></svg>