<svg id="Layer_1" data-name="Layer 1" xmlns="http://www.w3.org/2000/svg" viewBox="0 0 170.08 175.75"><defs><style>.cls-1{fill:none;stroke:#fff;stroke-miterlimit:10;stroke-width:0.28px;}.cls-2{fill:#fff;}</style></defs><title>oficcial-society_01</title><circle class="cls-1" cx="85.04" cy="90.81" r="82.15"/><path class="cls-2" d="M134,93.62a.76.76,0,0,1,.49.3l1.09,1.19a.82.82,0,0,1,0,1.15A7.74,7.74,0,0,1,130.34,98c-4.88,0-8-3.07-8-7.26a7.17,7.17,0,0,1,7.55-7.26A6.88,6.88,0,0,1,137,89.1a1.52,1.52,0,0,1-1.22,1.75L126.7,92.6a3.72,3.72,0,0,0,3.75,2.1,4.86,4.86,0,0,0,2.79-.76l.31-.18A.75.75,0,0,1,134,93.62Zm-1-5a3.28,3.28,0,0,0-3.21-2,3.38,3.38,0,0,0-3.51,3.31Z"/><path class="cls-2" d="M105.88,108.36a3,3,0,0,1,5.21-1.86l-.81.75a1.76,1.76,0,0,0-1.37-.64,1.75,1.75,0,0,0,0,3.5,1.74,1.74,0,0,0,1.37-.65l.81.75a3,3,0,0,1-5.21-1.85Z"/><path class="cls-2" d="M114.18,105.63h1.26v4.43h2.74v1h-4Z"/><path class="cls-2" d="M121,108.69v-3.06h1.26v3c0,1,.45,1.47,1.22,1.47s1.22-.43,1.22-1.47v-3H126v3.06a2.47,2.47,0,1,1-4.95,0Z"/><path class="cls-2" d="M134.45,109.6c0,.94-.75,1.49-2.19,1.49h-2.82v-5.46h2.67c1.36,0,2.07.57,2.07,1.42a1.31,1.31,0,0,1-.73,1.2A1.35,1.35,0,0,1,134.45,109.6Zm-3.75-3v1.29H132c.62,0,1-.22,1-.65s-.34-.64-1-.64Zm2.48,2.89c0-.46-.35-.68-1-.68h-1.47v1.35h1.47C132.82,110.14,133.18,109.94,133.18,109.47Z"/><path class="cls-2" d="M44.81,93.62a.76.76,0,0,1,.49.3l1.09,1.19a.82.82,0,0,1,0,1.15A7.74,7.74,0,0,1,41.11,98c-4.88,0-8-3.07-8-7.26a7.17,7.17,0,0,1,7.55-7.26,6.88,6.88,0,0,1,7.15,5.65,1.52,1.52,0,0,1-1.22,1.75L37.46,92.6a3.72,3.72,0,0,0,3.75,2.1A4.86,4.86,0,0,0,44,93.94l.31-.18A.75.75,0,0,1,44.81,93.62Zm-1-5a3.28,3.28,0,0,0-3.21-2,3.38,3.38,0,0,0-3.51,3.31Z"/><path class="cls-2" d="M65.18,89.69v7.24a.83.83,0,0,1-.83.83H61.92a.83.83,0,0,1-.83-.83V90.32C61.09,88,60,87,58.24,87c-2,0-3.38,1.2-3.38,3.8v6.14a.83.83,0,0,1-.83.83H51.6a.83.83,0,0,1-.83-.83V84.5a.83.83,0,0,1,.83-.83h2.14c.71,0,.92.37.94,1v.67a6.17,6.17,0,0,1,4.66-1.86C62.67,83.46,65.18,85.4,65.18,89.69Z"/><path class="cls-2" d="M68.85,90.71c0-4.24,3.27-7.26,7.86-7.26a6.68,6.68,0,0,1,5.93,2.86.81.81,0,0,1-.34,1.12l-1.8,1a.84.84,0,0,1-1.05-.26,3.41,3.41,0,0,0-2.76-1.33,3.91,3.91,0,0,0,0,7.81,3.37,3.37,0,0,0,2.76-1.32A.84.84,0,0,1,80.5,93l1.78,1a.85.85,0,0,1,.27,1.23A6.79,6.79,0,0,1,76.71,98C72.13,98,68.85,95,68.85,90.71Z"/><path class="cls-2" d="M85.38,90.83c0-4.24,3.27-7.26,7.75-7.26s7.73,3,7.73,7.26-3.25,7.26-7.73,7.26S85.38,95.07,85.38,90.83Zm11.34,0a3.61,3.61,0,1,0-3.59,3.9C95.17,94.73,96.72,93.26,96.72,90.83Z"/><path class="cls-2" d="M119.12,81.06V96.93a.83.83,0,0,1-.83.83h-2.18a.87.87,0,0,1-.9-.89v-.74a5.42,5.42,0,0,1-4.4,1.83,7.26,7.26,0,0,1,0-14.51,5.41,5.41,0,0,1,4.22,1.7V81.06a.83.83,0,0,1,.83-.83h2.43A.83.83,0,0,1,119.12,81.06Zm-4,9.66a3.61,3.61,0,1,0-3.59,3.9A3.57,3.57,0,0,0,115.11,90.71Z"/><path class="cls-2" d="M129,38.81a1.12,1.12,0,1,1,1.12-1.12A1.12,1.12,0,0,1,129,38.81Zm1.12,16.59A1.12,1.12,0,1,0,129,56.51,1.12,1.12,0,0,0,130.07,55.4Zm0,17.71A1.12,1.12,0,1,0,129,74.22,1.12,1.12,0,0,0,130.07,73.1Zm0,53.12a1.12,1.12,0,1,0-1.12,1.12A1.12,1.12,0,0,0,130.07,126.23Zm0,17.71a1.12,1.12,0,1,0-1.12,1.12A1.12,1.12,0,0,0,130.07,143.94ZM112.36,73.1a1.12,1.12,0,1,0-1.12,1.12A1.12,1.12,0,0,0,112.36,73.1Zm0,53.12a1.12,1.12,0,1,0-1.12,1.12A1.12,1.12,0,0,0,112.36,126.23ZM94.66,37.69a1.12,1.12,0,1,0-1.12,1.12A1.12,1.12,0,0,0,94.66,37.69Zm0,17.71a1.12,1.12,0,1,0-1.12,1.12A1.12,1.12,0,0,0,94.66,55.4Zm0,17.71a1.12,1.12,0,1,0-1.12,1.12A1.12,1.12,0,0,0,94.66,73.1Zm0,35.42a1.12,1.12,0,1,0-1.12,1.12A1.12,1.12,0,0,0,94.66,108.52Zm0,17.71a1.12,1.12,0,1,0-1.12,1.12A1.12,1.12,0,0,0,94.66,126.23Zm0,17.71a1.12,1.12,0,1,0-1.12,1.12A1.12,1.12,0,0,0,94.66,143.94ZM76.95,55.4a1.12,1.12,0,1,0-1.12,1.12A1.12,1.12,0,0,0,76.95,55.4Zm0,17.71a1.12,1.12,0,1,0-1.12,1.12A1.12,1.12,0,0,0,76.95,73.1Zm0,35.42a1.12,1.12,0,1,0-1.12,1.12A1.12,1.12,0,0,0,76.95,108.52Zm-17.71,0a1.12,1.12,0,1,0-1.12,1.12A1.12,1.12,0,0,0,59.24,108.52Zm0,17.71a1.12,1.12,0,1,0-1.12,1.12A1.12,1.12,0,0,0,59.24,126.23ZM41.53,37.69a1.12,1.12,0,1,0-1.12,1.12A1.12,1.12,0,0,0,41.53,37.69Zm0,17.71a1.12,1.12,0,1,0-1.12,1.12A1.12,1.12,0,0,0,41.53,55.4Zm0,17.71a1.12,1.12,0,1,0-1.12,1.12A1.12,1.12,0,0,0,41.53,73.1Zm0,35.42a1.12,1.12,0,1,0-1.12,1.12A1.12,1.12,0,0,0,41.53,108.52Z"/><circle class="cls-2" cx="141.44" cy="28.1" r="25.32"/><path d="M122,24.86a2.44,2.44,0,1,1,2.43,2.3A2.31,2.31,0,0,1,122,24.86Zm4.09,0a1.66,1.66,0,1,0-1.66,1.64A1.6,1.6,0,0,0,126.07,24.86Z"/><path d="M129.77,23.26v1.46H132v.63h-2.23V27.1H129V22.63h3.27v.63Z"/><path d="M135,23.26v1.46h2.23v.63H135V27.1h-.76V22.63h3.27v.63Z"/><path d="M139.55,22.63h.76V27.1h-.76Z"/><path d="M142.47,24.86a2.3,2.3,0,0,1,2.42-2.3,2.21,2.21,0,0,1,1.76.7l-.49.5a1.64,1.64,0,0,0-1.25-.54,1.64,1.64,0,1,0,0,3.28,1.64,1.64,0,0,0,1.25-.54l.49.5a2.21,2.21,0,0,1-1.76.71A2.3,2.3,0,0,1,142.47,24.86Z"/><path d="M148.67,22.63h.76V27.1h-.76Z"/><path d="M154.91,26h-2.4L152,27.1h-.75l2-4.47h.76l2.05,4.47h-.77Zm-.27-.61-.93-2.11-.94,2.11Z"/><path d="M158,22.63h.76v3.83h2.4v.64H158Z"/><path d="M123.44,35.13l.3-.6a2.49,2.49,0,0,0,1.51.49c.75,0,1-.28,1-.62,0-1-2.71-.31-2.71-2,0-.8.69-1.33,1.8-1.33a2.78,2.78,0,0,1,1.5.39l-.28.61a2.17,2.17,0,0,0-1.25-.35c-.72,0-1,.28-1,.64,0,1,2.71.33,2.71,2,0,.81-.68,1.34-1.82,1.34A2.92,2.92,0,0,1,123.44,35.13Z"/><path d="M128.8,33.37a2.44,2.44,0,1,1,2.43,2.3A2.31,2.31,0,0,1,128.8,33.37Zm4.09,0A1.66,1.66,0,1,0,131.23,35,1.6,1.6,0,0,0,132.89,33.37Z"/><path d="M135.51,33.37a2.3,2.3,0,0,1,2.42-2.3,2.21,2.21,0,0,1,1.76.7l-.49.5a1.64,1.64,0,0,0-1.25-.54A1.64,1.64,0,1,0,138,35a1.64,1.64,0,0,0,1.25-.54l.49.5a2.21,2.21,0,0,1-1.76.71A2.3,2.3,0,0,1,135.51,33.37Z"/><path d="M141.71,31.13h.76V35.6h-.76Z"/><path d="M148.32,35v.64H145V31.13h3.27v.63h-2.5V33H148v.62h-2.23V35Z"/><path d="M151.49,31.76H150v-.63h3.82v.63h-1.53V35.6h-.76Z"/><path d="M157.87,34.15V35.6h-.76V34.12l-1.83-3h.81l1.42,2.29,1.42-2.29h.79Z"/></svg>